<svg width="34" height="37" viewBox="0 0 34 37" fill="none" xmlns="http://www.w3.org/2000/svg">
<path d="M33.6529 2.75744C34.0393 2.36278 34.0601 1.70373 33.6995 1.28541C33.3389 0.867084 32.7334 0.847903 32.3471 1.24256L33.6529 2.75744ZM18.0728 16.2413C18.0546 16.8161 18.468 17.2957 18.9962 17.3124L27.6031 17.5851C28.1313 17.6018 28.5742 17.1494 28.5924 16.5745C28.6106 15.9996 28.1972 15.52 27.669 15.5033L20.0184 15.261L20.2822 6.93388C20.3004 6.35902 19.887 5.87944 19.3589 5.8627C18.8307 5.84597 18.3878 6.29843 18.3696 6.87329L18.0728 16.2413ZM32.3471 1.24256L18.3762 15.5141L19.6821 17.029L33.6529 2.75744L32.3471 1.24256Z" fill="black"/>
<path d="M0.341241 34.7906C-0.0420616 35.1882 -0.0578531 35.8474 0.30597 36.2629C0.669792 36.6784 1.27546 36.6929 1.65876 36.2953L0.341241 34.7906ZM15.8067 21.1985C15.8205 20.6236 15.4034 20.1472 14.8751 20.1345L6.26602 19.9283C5.73772 19.9156 5.29829 20.3715 5.28451 20.9465C5.27074 21.5214 5.68784 21.9978 6.21614 22.0104L13.8687 22.1938L13.6691 30.5224C13.6554 31.0973 14.0725 31.5737 14.6008 31.5863C15.1291 31.599 15.5685 31.1432 15.5823 30.5682L15.8067 21.1985ZM1.65876 36.2953L15.5089 21.928L14.1914 20.4233L0.341241 34.7906L1.65876 36.2953Z" fill="black"/>
</svg>
