<svg width="14" height="15" viewBox="0 0 14 15" fill="none" xmlns="http://www.w3.org/2000/svg">
<path d="M7.47535 6.01539C7.28369 6.21419 7.27577 6.54378 7.45766 6.75156C7.63954 6.95934 7.94236 6.96662 8.13402 6.76782L7.47535 6.01539ZM13.4809 1.01152C13.4878 0.72403 13.2793 0.485824 13.0151 0.479475L8.71077 0.376019C8.44663 0.36967 8.2269 0.597583 8.21999 0.885076C8.21308 1.17257 8.42161 1.41078 8.68574 1.41712L12.5119 1.50909L12.4118 5.67351C12.4048 5.961 12.6134 6.19921 12.8775 6.20556C13.1416 6.2119 13.3614 5.98399 13.3683 5.6965L13.4809 1.01152ZM8.13402 6.76782L13.332 1.37624L12.6733 0.623813L7.47535 6.01539L8.13402 6.76782Z" fill="#232222"/>
<path d="M6.56085 8.60941C6.75402 8.41209 6.76446 8.08257 6.58415 7.87342C6.40384 7.66427 6.10108 7.65469 5.9079 7.85201L6.56085 8.60941ZM0.521157 13.5631C0.512057 13.8505 0.718769 14.0903 0.982861 14.0986L5.28649 14.2349C5.55058 14.2433 5.77205 14.017 5.78115 13.7296C5.79025 13.4422 5.58354 13.2024 5.31944 13.194L1.494 13.0729L1.62582 8.90953C1.63492 8.6221 1.4282 8.38232 1.16411 8.37396C0.900021 8.3656 0.678555 8.59182 0.669454 8.87925L0.521157 13.5631ZM5.9079 7.85201L0.672864 13.1995L1.32581 13.9569L6.56085 8.60941L5.9079 7.85201Z" fill="#232222"/>
</svg>
