<svg width="79" height="70" viewBox="0 0 79 70" fill="none" xmlns="http://www.w3.org/2000/svg">
<mask id="path-1-inside-1_35_3127" fill="white">
<path fill-rule="evenodd" clip-rule="evenodd" d="M23.993 49.6377C21.1664 49.6377 18.8751 51.9291 18.8751 54.7556C18.8751 57.0561 20.3929 59.0022 22.4818 59.6468C20.3929 60.2914 18.875 62.2374 18.875 64.538C18.875 67.3645 21.1664 69.6559 23.9929 69.6559H57.497C60.3236 69.6559 62.615 67.3645 62.615 64.538C62.615 62.2374 61.0971 60.2914 59.0082 59.6468C61.0971 59.0022 62.615 57.0562 62.615 54.7556C62.615 51.9291 60.3237 49.6377 57.4971 49.6377H23.993Z"/>
</mask>
<path fill-rule="evenodd" clip-rule="evenodd" d="M23.993 49.6377C21.1664 49.6377 18.8751 51.9291 18.8751 54.7556C18.8751 57.0561 20.3929 59.0022 22.4818 59.6468C20.3929 60.2914 18.875 62.2374 18.875 64.538C18.875 67.3645 21.1664 69.6559 23.9929 69.6559H57.497C60.3236 69.6559 62.615 67.3645 62.615 64.538C62.615 62.2374 61.0971 60.2914 59.0082 59.6468C61.0971 59.0022 62.615 57.0562 62.615 54.7556C62.615 51.9291 60.3237 49.6377 57.4971 49.6377H23.993Z" fill="#F47D45"/>
<path d="M22.4818 59.6468L22.7767 60.6023L25.8731 59.6468L22.7767 58.6913L22.4818 59.6468ZM59.0082 59.6468L58.7133 58.6913L55.6169 59.6468L58.7133 60.6023L59.0082 59.6468ZM19.8751 54.7556C19.8751 52.4814 21.7187 50.6377 23.993 50.6377V48.6377C20.6141 48.6377 17.8751 51.3768 17.8751 54.7556H19.8751ZM22.7767 58.6913C21.0951 58.1723 19.8751 56.6051 19.8751 54.7556H17.8751C17.8751 57.5072 19.6907 59.832 22.187 60.6023L22.7767 58.6913ZM19.875 64.538C19.875 62.6884 21.0951 61.1212 22.7767 60.6023L22.187 58.6913C19.6907 59.4616 17.875 61.7864 17.875 64.538H19.875ZM23.9929 68.6559C21.7187 68.6559 19.875 66.8122 19.875 64.538H17.875C17.875 67.9168 20.6141 70.6559 23.9929 70.6559V68.6559ZM57.497 68.6559H23.9929V70.6559H57.497V68.6559ZM61.615 64.538C61.615 66.8122 59.7713 68.6559 57.497 68.6559V70.6559C60.8759 70.6559 63.615 67.9168 63.615 64.538H61.615ZM58.7133 60.6023C60.3949 61.1213 61.615 62.6884 61.615 64.538H63.615C63.615 61.7864 61.7993 59.4616 59.3031 58.6913L58.7133 60.6023ZM61.615 54.7556C61.615 56.6052 60.3949 58.1723 58.7133 58.6913L59.3031 60.6023C61.7993 59.832 63.615 57.5072 63.615 54.7556H61.615ZM57.4971 50.6377C59.7714 50.6377 61.615 52.4814 61.615 54.7556H63.615C63.615 51.3768 60.8759 48.6377 57.4971 48.6377V50.6377ZM23.993 50.6377H57.4971V48.6377H23.993V50.6377Z" fill="#F47D45" mask="url(#path-1-inside-1_35_3127)"/>
<circle cx="62.3112" cy="16.6901" r="16.1901" fill="#51C0A5" stroke="#51C0A5"/>
<rect y="16.6903" width="40.0563" height="28.9296" rx="8" fill="#F16F96"/>
</svg>
